<svg width="188" height="49" viewBox="0 0 188 49" fill="none" xmlns="http://www.w3.org/2000/svg">
<path d="M28.632 48L25.496 36.352H11.096L7.96 48H0.28L13.336 3.328H23.448L36.504 48H28.632ZM20.12 17.664L18.712 10.56H17.816L16.408 17.664L13.016 29.888H23.576L20.12 17.664ZM49.5885 48C46.9005 48 44.9592 47.4027 43.7645 46.208C42.6125 45.0133 42.0365 43.136 42.0365 40.576V0.639999H49.7805V41.792H53.6205V48H49.5885ZM93.2865 48V14.592H101.031V20.16H101.927C103.249 15.936 105.873 13.824 109.799 13.824C113.98 13.824 116.689 16.0213 117.927 20.416H118.695C119.42 18.1547 120.529 16.4907 122.023 15.424C123.559 14.3573 125.415 13.824 127.591 13.824C130.407 13.824 132.604 14.848 134.183 16.896C135.761 18.9013 136.551 21.7813 136.551 25.536V48H128.807V26.88C128.807 22.528 127.249 20.352 124.135 20.352C122.641 20.352 121.361 20.8213 120.295 21.76C119.271 22.656 118.759 23.936 118.759 25.6V48H111.015V26.88C111.015 24.576 110.631 22.912 109.863 21.888C109.095 20.864 107.943 20.352 106.407 20.352C104.913 20.352 103.633 20.8213 102.567 21.76C101.543 22.656 101.031 23.936 101.031 25.6V48H93.2865ZM144.599 48V14.592H152.343V20.16H153.239C154.562 15.936 157.228 13.824 161.239 13.824C164.226 13.824 166.53 14.848 168.151 16.896C169.772 18.9013 170.583 21.7813 170.583 25.536V48H162.839V26.88C162.839 22.528 161.218 20.352 157.975 20.352C156.396 20.352 155.052 20.8213 153.943 21.76C152.876 22.656 152.343 23.936 152.343 25.6V48H144.599Z" fill="#333333"/>
<path d="M77.0815 42.368H76.1855C74.9055 46.6347 72.1962 48.768 68.0575 48.768C65.0708 48.768 62.7668 47.7653 61.1455 45.76C59.5668 43.712 58.7775 40.7893 58.7775 36.992V14.592H66.5215V35.712C66.5215 40.1067 68.1428 42.304 71.3855 42.304C72.9642 42.304 74.3082 41.8347 75.4175 40.896C76.5268 39.9573 77.0815 38.656 77.0815 36.992V14.592H84.8255V48H77.0815V42.368ZM182.502 9.344C180.88 9.344 179.707 9.00267 178.982 8.32C178.256 7.59467 177.894 6.63467 177.894 5.44V4.16C177.894 2.96533 178.256 2.02666 178.982 1.344C179.707 0.618664 180.88 0.255997 182.502 0.255997C184.123 0.255997 185.296 0.618664 186.022 1.344C186.747 2.02666 187.11 2.96533 187.11 4.16V5.44C187.11 6.63467 186.747 7.59467 186.022 8.32C185.296 9.00267 184.123 9.344 182.502 9.344ZM178.661 14.592H186.406V48H178.661V14.592Z" fill="#40BA21"/>
</svg>
