<svg width="196" height="52" viewBox="0 0 196 52" fill="none" xmlns="http://www.w3.org/2000/svg">
<rect width="51.5566" height="51.5566" rx="14.3213" fill="white"/>
<path d="M19.7057 12.4127H12.4116V19.7068H19.7057V12.4127Z" fill="#40BA21"/>
<path d="M39.1447 12.4126H31.853V31.8421H29.4225V12.4126H22.1309V39.1313H28.2047V39.1338H35.4989V39.1313H39.1447V12.4126Z" fill="#40BA21"/>
<path d="M19.7057 22.1256H12.4116V39.132H19.7057V22.1256Z" fill="#40BA21"/>
<path d="M67.0806 38.2783L77.5866 14.4783H84.2166L94.7566 38.2783H87.7526L79.5246 17.7763H82.1766L73.9486 38.2783H67.0806ZM72.8266 33.6543L74.5606 28.6903H86.1886L87.9226 33.6543H72.8266ZM95.6792 38.2783V13.0503H102.139V38.2783H95.6792ZM113.409 38.5843C111.913 38.5843 110.565 38.2896 109.363 37.7003C108.185 37.1109 107.255 36.1929 106.575 34.9463C105.918 33.6769 105.589 32.0789 105.589 30.1523V19.8503H112.049V29.0983C112.049 30.5263 112.31 31.5463 112.831 32.1583C113.375 32.7703 114.135 33.0763 115.109 33.0763C115.744 33.0763 116.322 32.9289 116.843 32.6343C117.365 32.3396 117.784 31.8749 118.101 31.2403C118.419 30.5829 118.577 29.7443 118.577 28.7243V19.8503H125.037V38.2783H118.883V33.0763L120.073 34.5383C119.439 35.8983 118.521 36.9183 117.319 37.5983C116.118 38.2556 114.815 38.5843 113.409 38.5843ZM152.522 19.5443C153.95 19.5443 155.22 19.8389 156.33 20.4283C157.464 20.9949 158.348 21.8789 158.982 23.0803C159.64 24.2816 159.968 25.8343 159.968 27.7383V38.2783H153.508V28.7923C153.508 27.4776 153.259 26.5256 152.76 25.9363C152.262 25.3243 151.582 25.0183 150.72 25.0183C150.108 25.0183 149.553 25.1656 149.054 25.4603C148.556 25.7549 148.17 26.2083 147.898 26.8203C147.626 27.4096 147.49 28.1803 147.49 29.1323V38.2783H141.03V28.7923C141.03 27.4776 140.781 26.5256 140.282 25.9363C139.806 25.3243 139.126 25.0183 138.242 25.0183C137.608 25.0183 137.041 25.1656 136.542 25.4603C136.066 25.7549 135.681 26.2083 135.386 26.8203C135.114 27.4096 134.978 28.1803 134.978 29.1323V38.2783H128.518V19.8503H134.672V24.9843L133.448 23.5223C134.128 22.2076 135.058 21.2216 136.236 20.5643C137.415 19.8843 138.73 19.5443 140.18 19.5443C141.835 19.5443 143.286 19.9749 144.532 20.8363C145.802 21.6749 146.652 22.9896 147.082 24.7803L144.974 24.3383C145.632 22.8423 146.618 21.6749 147.932 20.8363C149.27 19.9749 150.8 19.5443 152.522 19.5443ZM175.368 19.5443C176.796 19.5443 178.088 19.8389 179.244 20.4283C180.4 20.9949 181.306 21.8789 181.964 23.0803C182.644 24.2816 182.984 25.8343 182.984 27.7383V38.2783H176.524V28.7923C176.524 27.4776 176.252 26.5256 175.708 25.9363C175.186 25.3243 174.45 25.0183 173.498 25.0183C172.818 25.0183 172.194 25.1769 171.628 25.4943C171.061 25.7889 170.619 26.2536 170.302 26.8883C169.984 27.5229 169.826 28.3503 169.826 29.3703V38.2783H163.366V19.8503H169.52V25.0863L168.33 23.5563C169.032 22.2189 169.996 21.2216 171.22 20.5643C172.444 19.8843 173.826 19.5443 175.368 19.5443ZM186.36 38.2783V19.8503H192.82V38.2783H186.36ZM189.59 17.8103C188.411 17.8103 187.459 17.4816 186.734 16.8243C186.008 16.1669 185.646 15.3509 185.646 14.3763C185.646 13.4016 186.008 12.5856 186.734 11.9283C187.459 11.2709 188.411 10.9423 189.59 10.9423C190.768 10.9423 191.72 11.2596 192.446 11.8943C193.171 12.5063 193.534 13.2996 193.534 14.2743C193.534 15.2943 193.171 16.1443 192.446 16.8243C191.743 17.4816 190.791 17.8103 189.59 17.8103Z" fill="white"/>
</svg>
